<?xml version="1.0" encoding="UTF-8" ?>
<!DOCTYPE svg PUBLIC "-//W3C//DTD SVG 1.1//EN" "http://www.w3.org/Graphics/SVG/1.1/DTD/svg11.dtd">
<svg width="317pt" height="509pt" viewBox="0 0 317 509" version="1.1" xmlns="http://www.w3.org/2000/svg">
<path fill="#020202" d=" M 195.82 23.73 C 197.81 23.00 199.64 23.55 201.19 24.91 C 200.91 25.48 200.36 26.62 200.08 27.19 C 198.47 26.96 196.88 26.70 195.30 26.35 C 195.47 25.48 195.65 24.60 195.82 23.73 Z" />
<path fill="#020202" d=" M 175.57 46.58 C 180.71 41.49 184.08 34.78 190.12 30.58 C 190.52 30.99 191.33 31.81 191.73 32.22 C 187.42 36.22 184.11 41.10 180.07 45.34 C 179.52 46.59 179.22 48.10 177.99 48.88 C 173.02 49.40 168.01 49.67 163.08 50.60 C 161.83 50.61 161.12 51.63 160.53 52.59 C 157.20 53.51 152.76 52.09 150.48 55.35 L 150.67 56.36 C 151.49 56.57 153.11 56.99 153.92 57.20 C 150.79 57.55 146.74 56.29 145.19 59.93 C 146.58 60.33 147.98 60.70 149.38 61.08 C 146.15 61.43 141.84 60.81 140.66 64.69 C 142.23 64.95 143.80 65.24 145.37 65.53 C 142.18 65.38 139.00 65.68 136.94 68.43 C 138.65 69.00 140.37 69.55 142.10 70.11 C 140.38 70.29 138.66 70.43 136.95 70.56 C 136.12 71.44 135.33 72.36 134.59 73.32 C 135.84 73.52 137.11 73.71 138.36 74.00 C 135.78 74.50 133.15 74.69 130.53 74.73 C 131.04 72.72 131.57 70.71 131.95 68.66 C 125.50 72.30 124.43 80.80 127.24 87.13 C 128.34 86.00 128.86 84.55 129.28 83.06 C 129.85 83.15 131.00 83.34 131.57 83.44 C 132.15 84.09 132.73 84.75 133.32 85.40 C 132.26 86.38 131.23 87.38 130.22 88.41 C 131.27 88.52 133.35 88.72 134.39 88.83 C 132.15 89.58 129.70 90.36 129.13 92.98 C 131.25 93.08 133.38 93.15 135.51 93.27 C 134.37 93.46 132.08 93.85 130.94 94.05 C 131.74 94.58 132.55 95.11 133.35 95.64 C 132.45 95.59 130.64 95.50 129.73 95.46 C 129.93 99.37 134.56 97.44 137.08 97.98 C 135.16 98.24 133.33 98.77 131.57 99.57 C 134.83 103.64 140.09 105.03 145.00 105.85 C 156.62 107.08 168.32 107.09 179.95 108.25 C 176.10 110.75 171.30 109.41 167.00 109.76 C 154.07 110.07 140.19 108.49 129.58 100.41 C 125.37 97.14 128.54 91.22 125.51 87.38 C 123.27 83.91 121.65 79.57 123.29 75.50 C 124.97 69.82 130.77 67.28 135.53 64.67 C 141.57 58.19 148.31 51.87 156.99 49.24 C 163.14 48.05 169.39 47.47 175.57 46.58 Z" />
<path fill="#020202" d=" M 184.08 51.38 C 186.99 49.47 189.57 52.55 192.08 53.78 C 197.29 57.87 202.96 61.78 206.43 67.58 C 210.36 73.14 212.13 79.81 213.47 86.39 C 208.80 85.73 209.03 80.60 207.58 77.15 C 206.39 72.82 203.69 69.19 201.62 65.28 C 197.63 58.71 190.72 54.81 184.08 51.38 Z" />
<path fill="#020202" d=" M 147.83 82.14 C 149.34 75.36 156.89 71.06 163.53 72.91 C 164.98 74.48 166.83 75.73 167.93 77.60 C 166.54 79.31 165.21 76.71 164.22 75.91 C 163.10 74.16 160.95 74.02 159.17 73.39 C 154.94 75.09 152.52 79.16 150.78 83.15 C 149.76 86.63 151.24 90.95 155.01 92.07 C 157.28 92.23 159.53 91.76 161.79 91.54 C 163.30 89.69 164.61 87.67 166.03 85.75 C 166.87 86.39 167.70 87.04 168.53 87.69 C 167.20 91.46 164.17 94.87 160.03 95.37 C 156.62 95.50 152.60 95.58 150.12 92.83 C 147.15 90.15 146.10 85.80 147.83 82.14 Z" />
<path fill="#020202" d=" M 198.98 90.32 C 201.77 89.13 204.82 90.04 206.85 92.23 C 211.63 92.92 214.25 98.53 213.68 102.99 C 210.71 103.27 210.86 100.02 209.88 98.05 C 208.87 95.76 206.98 94.04 205.50 92.06 C 201.74 92.18 197.21 91.13 194.39 94.35 C 192.93 96.36 190.24 98.25 191.30 101.05 C 190.17 102.29 188.86 103.84 189.89 105.55 C 189.12 106.87 188.33 108.21 188.41 109.79 C 187.61 111.35 186.61 112.97 187.02 114.79 C 183.70 118.02 179.66 120.95 174.86 121.22 C 167.09 121.71 159.24 122.07 151.52 120.69 C 145.23 119.96 138.75 118.98 133.13 115.91 C 130.68 114.54 129.37 111.88 129.77 109.09 C 132.47 109.32 132.92 111.76 133.46 113.91 C 139.77 117.13 146.78 118.58 153.81 118.95 C 160.47 120.03 167.24 119.52 173.88 118.61 C 177.31 117.91 181.10 117.33 183.51 114.51 C 185.07 108.82 185.23 102.54 188.69 97.54 C 191.46 94.34 194.43 90.72 198.98 90.32 Z" />
<path fill="#020202" d=" M 198.53 101.41 C 200.81 99.68 202.53 102.61 203.97 103.98 C 203.05 105.10 202.27 106.41 201.01 107.19 C 199.50 107.06 198.08 106.53 196.65 106.13 C 196.73 104.38 196.65 102.27 198.53 101.41 Z" />
<path fill="#020202" d=" M 39.56 111.25 C 40.27 108.82 42.90 109.22 44.89 109.31 C 47.30 109.93 48.14 112.81 48.23 115.00 C 47.87 117.92 46.02 120.34 45.00 123.04 C 43.85 126.46 45.40 130.26 43.83 133.59 C 42.64 136.19 41.52 139.30 38.63 140.42 C 35.81 141.88 32.55 141.62 29.51 141.34 C 34.02 140.10 38.30 137.96 41.23 134.17 C 44.36 129.47 40.69 123.45 43.89 118.84 C 44.69 117.36 45.82 116.11 46.81 114.77 C 46.21 113.58 45.58 112.42 44.92 111.27 C 43.13 111.29 41.35 111.29 39.56 111.25 Z" />
<path fill="#020202" d=" M 33.16 118.96 C 34.22 116.40 34.80 113.39 37.36 111.82 C 37.31 115.82 35.88 119.57 34.58 123.28 C 30.63 121.15 28.53 116.63 24.17 115.13 C 22.05 116.51 19.11 117.45 18.35 120.14 C 17.45 123.95 18.70 129.27 23.11 130.16 C 25.98 131.36 26.73 127.84 27.45 125.90 C 27.84 126.14 28.60 126.61 28.99 126.84 C 28.95 128.20 28.90 129.56 28.82 130.91 C 25.74 131.97 22.04 131.72 19.43 129.64 C 16.37 127.56 15.98 123.44 15.97 120.06 C 16.54 117.12 18.77 114.99 21.34 113.67 C 26.16 112.86 29.51 116.55 33.16 118.96 Z" />
<path fill="#020202" d=" M 210.14 114.59 C 210.85 114.76 212.29 115.09 213.01 115.26 C 212.03 118.12 210.94 120.96 209.47 123.61 C 205.73 129.82 199.32 133.94 192.58 136.28 C 182.93 138.87 172.81 138.85 162.90 138.52 C 153.63 137.22 143.25 137.47 135.56 131.36 C 132.25 128.97 130.64 124.87 130.77 120.86 C 133.35 121.85 135.92 122.97 138.03 124.80 C 136.99 124.68 134.91 124.45 133.87 124.34 C 135.69 126.74 138.97 127.02 141.45 128.48 C 139.80 128.49 138.15 128.52 136.51 128.58 C 138.76 131.02 142.36 130.88 145.25 132.10 C 145.09 136.47 150.79 135.73 153.72 136.30 C 158.50 136.56 163.17 137.95 167.98 137.64 C 172.04 137.81 175.90 136.34 179.89 135.91 C 188.25 135.30 195.75 130.96 202.49 126.30 C 206.57 123.65 208.98 119.20 210.14 114.59 Z" />
<path fill="#020202" d=" M 6.90 129.80 C 5.45 125.80 8.18 121.78 11.57 119.83 C 12.97 123.82 7.96 126.06 8.91 129.98 C 9.37 132.80 11.75 134.53 14.20 135.60 C 15.84 135.45 17.50 135.38 19.15 135.43 C 16.79 137.75 13.16 136.66 10.47 135.54 C 8.13 134.62 7.71 131.87 6.90 129.80 Z" />
<path fill="#020202" d=" M 1.67 128.96 C 3.16 131.08 3.08 133.54 2.46 135.95 C 3.28 137.98 4.07 140.03 4.75 142.11 C 5.60 142.31 7.30 142.71 8.14 142.90 C 8.55 142.48 9.35 141.63 9.76 141.20 C 10.40 141.45 11.69 141.96 12.33 142.21 C 11.79 143.19 11.25 144.18 10.71 145.16 C 13.49 147.61 16.99 148.77 20.63 149.11 C 22.17 147.48 23.64 145.79 25.10 144.10 C 25.69 145.68 25.84 147.35 25.36 148.99 C 19.66 150.95 11.94 150.75 8.82 144.70 C 4.06 144.10 0.88 140.16 0.00 135.63 L 0.00 133.35 C 0.50 131.86 1.06 130.40 1.67 128.96 Z" />
<path fill="#020202" d=" M 161.57 144.16 C 164.09 143.84 166.59 143.30 169.14 143.15 C 166.85 144.09 163.77 144.75 164.03 147.92 C 165.25 147.84 166.49 147.74 167.72 147.61 C 168.05 147.76 168.72 148.06 169.06 148.22 C 166.30 148.30 164.14 150.08 163.66 152.81 C 164.69 152.85 166.74 152.93 167.77 152.97 C 165.57 153.65 163.94 155.39 163.65 157.73 C 165.23 157.60 166.80 157.41 168.36 157.16 C 165.85 157.70 163.43 159.21 163.65 162.13 C 165.58 162.17 167.48 162.57 169.36 162.98 C 167.86 163.10 166.36 163.14 164.86 163.22 C 164.28 164.36 163.60 165.45 163.09 166.63 C 164.45 166.97 165.82 167.25 167.21 167.48 C 166.88 167.91 166.24 168.77 165.92 169.20 C 165.40 169.46 164.36 169.99 163.83 170.26 C 165.82 171.50 168.11 171.75 170.37 172.09 C 169.64 172.33 168.18 172.81 167.45 173.06 C 164.47 172.80 162.18 170.93 159.92 169.20 C 160.40 162.26 160.39 155.25 161.40 148.38 C 161.47 146.97 161.52 145.57 161.57 144.16 Z" />
<path fill="#020202" d=" M 38.36 145.23 C 37.62 143.87 39.84 144.80 40.50 144.66 C 44.52 152.45 47.96 160.69 53.52 167.56 C 56.39 171.21 60.38 173.78 63.25 177.44 C 55.34 172.35 48.84 165.11 43.94 157.12 C 42.57 152.91 39.52 149.50 38.36 145.23 Z" />
<path fill="#020202" d=" M 176.00 145.97 C 176.72 144.55 178.11 145.87 179.17 146.00 C 179.29 154.07 180.24 162.17 179.04 170.21 C 178.13 170.08 175.59 171.98 175.98 170.04 C 177.66 162.09 176.46 153.97 176.00 145.97 Z" />
<path fill="#020202" d=" M 25.81 152.22 C 26.20 151.82 26.97 151.03 27.36 150.64 C 30.16 157.00 33.08 163.32 36.99 169.09 C 41.58 177.20 48.74 183.38 55.88 189.20 C 69.87 200.34 87.58 205.42 105.04 207.80 C 107.24 208.74 107.75 207.46 107.51 205.46 C 110.06 207.28 113.04 208.21 115.98 209.21 C 113.54 209.22 110.95 209.62 109.88 212.12 C 111.59 212.88 113.33 213.61 115.07 214.31 C 113.40 214.63 111.55 214.53 110.18 215.73 C 110.69 218.99 114.41 219.27 116.85 220.52 C 114.54 220.58 112.23 220.54 109.92 220.61 C 109.09 219.54 108.28 218.45 107.49 217.36 C 107.55 215.00 107.66 212.58 106.76 210.34 C 96.30 208.91 85.70 207.28 75.92 203.10 C 61.56 197.91 49.69 187.54 39.90 176.07 C 34.78 168.39 30.04 160.42 25.81 152.22 Z" />
<path fill="#020202" d=" M 122.08 158.40 C 131.28 155.73 140.92 154.44 150.50 154.71 C 151.65 154.75 152.80 154.76 153.95 154.73 L 154.22 155.97 C 146.13 155.80 138.06 156.48 130.09 157.85 C 128.42 158.48 127.28 159.96 125.78 160.88 C 123.87 161.50 121.88 161.78 119.92 162.19 C 119.02 163.34 118.10 164.48 117.20 165.63 C 114.32 165.63 111.44 165.65 108.56 165.52 C 112.44 162.13 117.09 159.66 122.08 158.40 Z" />
<path fill="#020202" d=" M 186.57 156.81 C 187.76 156.72 188.94 156.80 190.13 156.90 C 190.57 156.86 191.45 156.77 191.88 156.73 C 205.10 159.05 219.18 161.41 230.00 169.93 C 230.18 170.47 230.53 171.56 230.70 172.10 C 226.21 177.96 218.70 179.52 212.20 182.10 C 198.74 186.25 184.38 185.35 170.53 184.26 C 175.78 182.98 181.24 183.29 186.57 182.61 L 186.19 183.49 C 188.30 183.48 190.41 183.45 192.52 183.43 C 192.56 183.22 192.65 182.81 192.70 182.61 C 197.64 183.14 202.64 182.62 207.47 181.47 C 214.23 179.41 221.97 178.06 226.90 172.54 C 228.18 170.65 225.99 169.10 224.59 168.19 C 218.52 163.48 210.68 162.49 203.50 160.44 C 197.87 159.16 192.15 158.26 186.57 156.81 Z" />
<path fill="#020202" d=" M 108.78 170.96 C 110.11 171.03 111.43 171.20 112.74 171.48 C 117.35 171.85 121.97 171.99 126.56 172.55 C 124.60 173.06 122.73 173.84 120.87 174.62 C 125.84 176.56 131.24 175.99 136.46 176.28 C 134.88 176.74 133.30 177.21 131.74 177.70 C 139.68 180.14 147.99 182.03 156.34 181.75 C 156.31 181.95 156.23 182.35 156.20 182.55 C 157.18 182.40 159.13 182.10 160.11 181.94 C 160.75 182.36 161.40 182.78 162.04 183.20 C 154.90 183.98 147.86 182.30 140.80 181.50 C 132.49 179.80 124.14 178.06 116.16 175.12 C 113.48 174.16 111.02 172.68 108.78 170.96 Z" />
<path fill="#020202" d=" M 127.40 171.10 C 130.54 169.69 127.43 174.35 127.40 171.10 Z" />
<path fill="#020202" d=" M 106.64 178.42 C 109.31 181.11 112.84 182.21 116.37 183.29 C 114.98 183.36 113.60 183.41 112.21 183.46 C 111.52 184.26 110.83 185.05 110.13 185.85 C 112.58 186.86 115.01 187.92 117.49 188.88 C 115.46 188.62 113.42 188.45 111.38 188.25 L 111.90 189.63 C 111.32 189.77 110.16 190.05 109.58 190.19 C 111.58 191.30 113.59 192.39 115.50 193.66 C 114.83 193.45 113.50 193.03 112.83 192.82 L 113.69 194.24 C 112.42 194.75 111.17 195.31 109.92 195.88 C 108.94 195.65 107.96 195.44 106.98 195.23 C 106.44 194.36 105.89 193.49 105.34 192.63 C 94.62 192.97 83.51 191.55 74.16 185.93 C 71.63 185.15 70.22 183.00 69.37 180.63 C 75.64 184.71 82.38 188.26 89.76 189.74 C 95.45 190.03 101.10 191.17 106.80 190.48 C 106.92 186.45 106.44 182.44 106.64 178.42 Z" />
<path fill="#020202" d=" M 227.85 181.95 C 228.91 180.99 229.98 180.04 231.05 179.08 C 230.28 183.39 229.92 187.77 230.19 192.14 C 228.07 193.25 225.56 194.07 224.20 196.18 C 222.55 198.40 222.85 201.34 222.41 203.93 C 221.78 203.98 220.54 204.08 219.91 204.13 C 219.34 201.75 218.64 199.16 219.88 196.86 C 221.02 193.55 224.41 191.99 227.41 190.77 C 227.95 187.86 227.90 184.89 227.85 181.95 Z" />
<path fill="#020202" d=" M 236.61 197.57 C 236.70 196.67 236.80 195.78 236.90 194.88 C 245.52 199.18 252.75 205.76 259.09 212.92 C 265.75 219.76 271.79 227.27 276.50 235.60 C 282.85 248.08 289.11 260.76 292.62 274.38 C 291.50 274.44 290.39 274.50 289.28 274.55 C 285.72 263.90 281.60 253.42 276.82 243.26 C 275.26 239.49 272.15 236.40 271.59 232.26 C 270.33 230.93 268.76 229.82 267.94 228.14 C 263.52 220.20 256.22 214.61 250.28 207.88 C 246.34 203.68 241.57 200.42 236.61 197.57 Z" />
<path fill="#020202" d=" M 189.36 204.85 C 190.11 201.92 190.50 197.63 194.10 196.85 C 195.58 196.94 197.01 197.37 198.45 197.69 C 200.04 199.85 200.51 202.43 200.40 205.07 C 197.70 206.78 194.55 207.57 191.37 207.13 C 190.87 206.56 189.86 205.42 189.36 204.85 Z" />
<path fill="#020202" d=" M 137.15 199.08 C 139.31 197.68 142.83 197.16 144.33 199.78 C 145.32 201.49 147.39 203.73 145.56 205.61 C 142.38 208.72 134.13 208.29 134.85 202.39 C 135.66 201.32 136.44 200.22 137.15 199.08 Z" />
<path fill="#020202" d=" M 162.61 199.39 C 165.23 199.04 168.13 198.21 170.58 199.61 C 170.49 200.15 170.29 201.24 170.20 201.79 L 171.40 202.36 C 170.04 204.20 168.49 205.90 166.62 207.22 C 168.12 207.72 169.65 208.15 171.20 208.49 C 167.92 209.80 164.58 208.17 161.49 207.10 C 161.35 204.46 161.57 201.84 162.61 199.39 Z" />
<path fill="#020202" d=" M 225.19 211.17 C 225.28 208.34 229.06 210.16 230.94 209.66 L 230.28 210.18 C 235.21 211.38 239.47 214.25 243.75 216.86 L 243.03 217.80 L 244.03 217.50 C 248.41 221.64 252.01 226.49 255.91 231.06 C 257.36 232.62 258.14 234.63 258.62 236.68 C 255.24 236.69 254.09 233.06 252.02 231.02 C 246.09 224.32 240.88 216.26 232.25 212.78 C 231.05 212.30 228.59 211.14 228.15 213.13 C 227.66 217.75 228.68 222.40 228.01 227.02 C 227.64 235.48 227.74 243.97 227.20 252.44 C 226.35 259.42 227.11 266.49 225.94 273.44 C 226.42 278.01 225.82 282.61 226.16 287.19 C 226.84 295.86 225.15 304.51 225.66 313.17 C 225.67 315.09 225.41 316.99 225.29 318.90 C 224.19 318.78 223.09 318.66 222.00 318.55 C 222.07 317.22 222.14 315.90 222.21 314.57 C 222.08 314.40 221.82 314.06 221.68 313.89 C 222.46 312.78 222.74 311.53 222.55 310.16 C 222.98 289.05 223.01 267.92 224.53 246.85 C 225.11 234.96 225.68 223.08 225.19 211.17 Z" />
<path fill="#020202" d=" M 107.51 227.42 C 111.49 229.22 115.65 230.64 119.49 232.74 C 116.62 231.66 113.73 229.69 110.55 230.95 C 110.72 231.92 111.08 233.88 111.26 234.85 C 113.50 235.81 115.77 236.68 118.02 237.63 C 115.30 237.37 112.12 236.21 110.00 238.63 C 110.82 242.18 115.02 242.06 117.60 243.71 C 114.95 242.93 112.30 243.33 110.12 245.08 C 110.65 245.79 111.69 247.22 112.21 247.93 C 110.10 248.70 109.22 251.46 110.91 253.08 C 113.21 254.17 115.80 254.57 118.21 255.41 C 115.38 255.53 111.89 254.06 109.74 256.54 C 109.75 257.23 109.78 258.61 109.79 259.31 C 113.21 261.46 117.30 262.13 121.16 263.15 C 117.92 262.82 114.68 262.90 111.45 263.19 C 110.66 264.21 109.88 265.25 109.10 266.28 C 111.36 267.11 113.67 267.82 116.00 268.46 C 113.06 268.76 109.60 268.98 108.62 272.34 C 111.21 273.28 113.85 274.08 116.52 274.74 C 114.64 274.82 112.76 274.96 110.88 275.13 C 110.10 276.22 109.34 277.33 108.62 278.47 C 110.93 280.28 113.78 281.01 116.56 281.76 C 113.74 281.53 109.61 280.52 108.77 284.32 C 109.20 286.62 112.32 286.84 114.14 287.72 C 111.16 286.63 108.51 288.78 108.64 291.85 C 110.88 292.76 113.18 293.54 115.43 294.44 C 113.37 294.67 109.86 292.93 109.18 295.94 C 109.00 296.66 108.64 298.11 108.46 298.84 C 108.94 298.72 109.92 298.50 110.40 298.38 C 110.51 298.95 110.73 300.07 110.85 300.63 C 110.32 300.60 109.26 300.55 108.73 300.52 C 108.94 302.42 109.29 304.32 111.60 304.54 C 110.52 305.25 109.44 305.95 108.34 306.63 C 108.41 307.55 108.52 308.47 108.67 309.39 C 110.63 310.11 112.69 310.59 114.66 311.30 C 112.57 311.39 109.99 310.37 108.44 312.30 C 108.32 313.21 108.25 314.12 108.21 315.04 C 110.56 315.97 112.88 316.96 115.25 317.86 C 114.46 318.63 113.66 319.40 112.87 320.18 C 117.82 322.79 123.29 323.95 128.56 325.68 C 138.73 327.71 148.97 329.46 159.24 330.96 C 166.39 331.47 173.57 331.06 180.71 331.78 C 177.11 333.08 173.26 333.42 169.45 333.14 C 160.95 332.45 152.45 331.49 144.13 329.54 C 141.61 328.58 139.13 329.98 136.59 329.88 C 133.97 329.04 131.70 327.17 128.86 327.06 C 122.66 326.54 116.88 324.13 111.03 322.18 C 108.68 321.52 107.02 319.69 105.22 318.17 C 104.55 308.79 105.05 299.36 104.89 289.96 C 104.79 281.78 106.70 273.64 106.30 265.49 C 106.76 252.80 107.56 240.12 107.51 227.42 Z" />
<path fill="#020202" d=" M 263.72 242.84 C 265.93 243.49 266.53 246.36 267.79 248.12 C 270.78 252.65 272.71 257.74 274.67 262.78 C 276.97 267.76 278.87 272.94 280.54 278.17 C 279.66 278.13 277.92 278.05 277.04 278.01 C 274.28 268.87 271.38 259.67 266.74 251.29 C 265.40 248.65 263.47 245.91 263.72 242.84 Z" />
<path fill="#020202" d=" M 161.50 259.66 C 163.18 259.42 164.89 259.38 166.57 259.15 C 170.39 259.44 174.19 260.33 177.74 261.79 C 173.06 262.45 168.54 260.18 163.85 260.65 C 160.05 261.54 156.11 262.56 152.97 265.00 C 149.47 267.83 146.58 271.37 144.12 275.10 C 142.58 280.41 141.70 286.08 142.50 291.59 C 142.72 292.99 143.03 294.37 143.40 295.74 C 143.58 298.47 145.84 300.32 146.82 302.76 C 152.10 308.20 159.59 310.92 167.05 311.44 C 172.62 311.28 177.46 308.33 182.03 305.44 C 184.85 302.36 186.95 298.72 188.54 294.88 C 190.21 289.48 189.84 283.75 189.77 278.18 C 190.86 278.80 191.96 279.42 193.05 280.06 C 193.92 288.35 192.33 297.23 186.86 303.78 C 180.88 309.69 172.35 313.34 163.88 312.50 C 157.57 311.27 150.62 309.86 146.73 304.17 C 144.32 300.33 140.78 297.05 140.09 292.36 C 137.92 285.56 140.36 278.56 142.83 272.21 C 146.54 265.34 153.67 260.38 161.50 259.66 Z" />
<path fill="#020202" d=" M 155.19 272.16 C 159.00 269.36 163.70 267.27 168.52 268.30 C 172.90 269.37 178.04 270.22 180.61 274.42 C 184.19 278.96 185.30 284.85 184.76 290.51 C 185.40 295.97 180.34 298.84 176.46 301.42 C 168.08 305.74 155.70 303.98 150.97 295.25 C 154.68 296.72 156.30 300.96 160.10 302.17 C 165.66 303.00 171.52 302.17 176.54 299.63 C 180.44 296.43 182.99 291.45 183.19 286.38 C 182.45 286.56 180.98 286.93 180.24 287.12 C 179.68 282.93 180.69 278.15 177.90 274.61 C 176.42 277.40 177.20 280.63 176.86 283.65 C 176.39 283.55 175.45 283.34 174.98 283.24 C 174.93 279.55 175.18 275.85 174.88 272.18 C 174.58 271.87 173.97 271.26 173.66 270.95 C 171.00 274.17 172.63 278.72 171.77 282.51 C 172.13 284.19 172.15 285.92 171.89 287.62 C 169.77 284.78 170.92 280.97 170.27 277.71 C 169.73 274.71 170.69 271.38 168.87 268.71 C 165.17 272.34 167.06 278.10 166.15 282.71 C 165.79 278.47 165.62 274.20 165.62 269.94 C 160.40 268.49 162.01 275.06 160.26 277.86 C 160.08 275.96 159.92 274.07 159.80 272.17 C 155.94 273.45 154.31 278.20 150.08 278.51 C 150.96 275.79 153.20 274.03 155.19 272.16 Z" />
<path fill="#020202" d=" M 291.63 280.14 C 292.95 279.78 294.28 279.43 295.60 279.07 C 296.70 279.75 297.79 280.48 298.81 281.28 L 299.30 281.70 C 299.61 281.81 300.23 282.03 300.53 282.14 C 307.50 286.19 313.64 292.20 317.00 299.62 L 317.00 302.79 C 314.54 304.09 311.81 304.74 309.08 305.19 C 309.02 307.61 309.39 310.12 308.67 312.48 C 307.54 316.45 301.28 317.27 299.20 313.69 C 297.74 312.05 298.68 309.82 298.91 307.94 C 300.47 310.64 302.65 312.83 305.33 314.41 C 306.07 312.76 307.46 311.10 306.66 309.21 C 305.29 303.87 301.73 299.43 300.14 294.17 C 304.24 296.55 306.93 300.58 310.36 303.76 C 312.67 303.63 315.85 302.39 314.69 299.52 C 310.36 289.99 300.69 284.47 291.63 280.14 Z" />
<path fill="#020202" d=" M 278.20 283.81 C 279.86 283.59 282.04 282.30 283.24 284.22 C 281.67 284.73 280.04 285.01 278.52 285.66 C 275.41 288.16 275.05 292.61 272.36 295.44 C 269.78 296.95 266.77 298.08 265.84 301.24 C 269.88 304.46 275.25 301.02 278.66 298.34 C 278.90 298.70 279.37 299.41 279.61 299.76 C 277.64 301.42 275.78 303.41 273.21 304.10 C 270.47 304.66 267.66 304.23 264.91 304.05 C 264.39 302.36 263.22 300.23 264.64 298.65 C 266.88 296.93 269.81 295.81 271.18 293.18 C 273.09 289.79 274.21 285.38 278.20 283.81 Z" />
<path fill="#020202" d=" M 293.34 298.61 C 296.22 304.19 295.33 310.65 293.29 316.35 C 292.43 320.34 285.43 320.51 284.51 316.43 C 283.01 311.10 284.58 305.38 282.67 300.08 C 283.31 299.89 284.59 299.50 285.23 299.30 C 286.27 304.92 284.23 311.32 287.37 316.39 C 288.09 316.68 289.52 317.25 290.24 317.53 C 293.42 312.82 291.74 306.78 292.56 301.47 L 294.21 302.11 C 293.99 301.24 293.56 299.49 293.34 298.61 Z" />
<path fill="#020202" d=" M 208.10 327.60 C 211.15 325.70 214.60 324.72 218.08 323.98 C 219.84 324.25 221.62 324.39 223.40 324.52 C 219.05 324.97 215.08 326.86 210.94 328.11 C 204.75 330.03 198.40 331.33 192.03 332.47 C 190.22 332.65 188.76 334.25 188.63 336.05 C 187.92 341.74 187.09 347.51 184.93 352.87 C 184.26 354.15 182.91 354.93 181.58 355.38 C 170.55 358.48 158.77 359.03 147.54 356.66 C 144.17 355.65 140.30 355.02 137.91 352.19 C 137.66 348.37 137.50 344.53 137.00 340.73 C 137.66 338.38 138.43 336.06 139.03 333.70 C 139.12 334.07 139.31 334.81 139.40 335.18 C 141.07 335.56 142.70 336.12 144.23 336.91 C 143.57 337.40 142.24 338.37 141.57 338.85 C 142.70 339.18 143.84 339.56 144.98 339.87 C 143.47 340.44 142.59 341.76 141.64 342.98 C 143.09 343.36 144.54 343.70 145.99 344.05 C 147.18 344.73 148.44 345.25 149.77 345.60 C 147.92 345.87 146.34 346.70 145.04 348.10 C 146.89 349.47 149.11 350.00 151.32 350.45 C 150.61 350.61 149.17 350.92 148.45 351.08 C 148.03 351.58 147.19 352.57 146.77 353.07 C 151.23 354.91 156.10 355.18 160.65 356.72 C 167.37 356.18 174.07 355.37 180.73 354.28 L 180.42 353.90 C 181.88 353.55 183.82 353.13 183.68 351.19 C 184.35 344.58 187.15 338.33 186.93 331.61 C 190.72 330.31 194.77 330.13 198.67 329.28 L 198.21 328.68 C 200.10 328.29 201.97 327.84 203.86 327.42 L 202.94 329.00 C 203.97 328.17 205.02 327.36 206.10 326.59 C 206.77 326.92 207.43 327.26 208.10 327.60 Z" />
<path fill="#020202" d=" M 174.59 364.03 C 175.02 364.22 175.86 364.58 176.28 364.76 C 174.44 379.93 173.57 395.20 171.98 410.39 C 170.94 409.91 169.92 409.43 168.89 408.95 C 171.16 395.18 170.54 381.13 172.76 367.35 C 173.13 366.13 173.97 365.13 174.59 364.03 Z" />
<path fill="#020202" d=" M 147.98 364.41 C 149.65 364.85 151.33 365.30 152.97 365.85 C 155.61 366.31 152.90 367.97 151.76 368.03 C 151.81 369.73 153.08 370.51 154.50 371.10 C 153.78 371.60 152.34 372.61 151.62 373.11 C 153.26 373.82 154.92 374.46 156.61 375.03 C 155.12 375.41 153.63 375.85 152.17 376.35 C 152.38 377.31 152.60 378.27 152.81 379.24 C 154.26 379.55 155.71 379.88 157.17 380.13 C 156.40 380.41 154.86 380.96 154.08 381.24 C 153.71 381.26 152.95 381.31 152.58 381.34 C 152.73 382.01 153.05 383.37 153.20 384.05 C 153.88 384.33 154.51 384.69 155.11 385.11 C 154.57 385.35 153.51 385.83 152.97 386.07 C 153.05 386.87 153.20 388.46 153.28 389.26 C 154.85 389.63 156.42 390.02 157.98 390.46 C 157.35 390.48 156.10 390.51 155.48 390.53 C 154.83 390.95 153.55 391.81 152.91 392.24 C 152.62 395.31 155.21 396.26 157.80 396.22 C 156.16 396.56 154.56 397.05 153.02 397.69 C 152.97 400.07 154.07 402.02 156.80 401.79 C 155.50 402.10 154.20 402.44 152.90 402.80 C 152.99 406.23 156.81 406.54 158.76 408.61 C 157.93 408.50 156.27 408.27 155.44 408.15 L 155.91 409.65 C 155.21 409.87 153.81 410.29 153.11 410.51 C 156.39 411.94 159.93 412.39 163.48 412.08 C 164.81 413.71 166.92 414.20 168.67 415.22 C 163.34 412.76 157.26 413.68 152.01 410.93 C 151.74 410.38 151.22 409.29 150.95 408.74 C 149.34 399.24 149.69 389.57 149.03 379.99 C 149.67 374.76 148.56 369.59 147.98 364.41 Z" />
<path fill="#020202" d=" M 179.19 406.42 C 186.43 409.34 187.44 418.24 188.83 424.93 C 188.73 432.66 186.37 440.18 184.42 447.65 C 182.11 451.83 180.98 456.57 178.85 460.84 C 174.63 467.41 169.57 474.43 161.50 476.32 C 167.10 472.79 171.92 468.03 175.46 462.45 C 180.74 449.99 185.89 436.80 185.35 423.02 C 185.52 417.32 181.92 412.37 178.03 408.57 C 177.24 408.64 175.65 408.78 174.86 408.85 C 176.48 408.40 177.99 407.63 179.19 406.42 Z" />
<path fill="#020202" d=" M 136.94 414.00 C 139.03 410.97 141.35 407.70 144.91 406.32 C 144.44 407.93 144.18 409.73 142.87 410.93 C 139.49 414.37 138.45 419.22 136.49 423.47 C 135.86 423.74 134.60 424.29 133.97 424.56 C 134.90 421.03 134.77 417.11 136.94 414.00 Z" />
<path fill="#020202" d=" M 149.91 420.37 C 151.78 420.13 153.68 420.01 155.57 419.92 C 158.98 421.03 162.51 421.87 165.84 423.21 C 168.01 425.33 169.67 428.12 170.39 431.06 C 170.27 434.58 171.38 438.25 169.86 441.60 C 167.71 448.15 163.75 453.83 160.16 459.64 C 157.64 462.90 156.71 467.16 158.42 471.03 C 157.58 470.73 156.75 470.41 155.94 470.07 C 155.66 466.80 155.29 463.26 156.84 460.23 C 161.56 452.35 165.94 444.12 167.97 435.09 C 167.60 431.38 166.71 426.96 163.42 424.75 C 158.93 423.23 154.54 421.42 149.91 420.37 Z" />
<path fill="#020202" d=" M 134.32 434.30 C 137.09 431.64 141.29 431.45 144.07 428.77 C 145.92 429.57 147.90 428.96 149.83 428.85 C 153.41 428.42 156.91 429.64 160.49 429.51 C 158.84 430.23 157.40 431.31 156.10 432.55 C 156.31 434.59 156.43 436.64 156.46 438.71 C 154.82 436.83 153.36 434.81 151.96 432.76 C 149.03 434.59 146.33 436.76 143.41 438.61 C 142.15 439.30 141.44 440.63 141.58 442.08 C 144.46 445.97 147.63 449.64 150.55 453.50 C 146.22 451.65 142.95 448.21 139.79 444.84 C 138.58 445.14 137.10 445.14 136.44 446.40 C 134.08 449.56 132.30 453.20 131.80 457.15 C 133.76 457.75 135.72 458.36 137.61 459.16 C 135.80 459.30 133.98 459.27 132.17 459.52 C 130.82 460.61 130.59 462.44 130.02 463.98 C 131.45 467.18 131.07 470.83 132.43 474.07 C 135.46 473.57 138.41 472.70 141.45 472.28 C 139.04 474.03 135.51 474.23 133.95 477.02 C 134.27 478.21 134.77 479.35 135.22 480.51 C 136.59 483.04 138.00 485.56 139.66 487.93 C 143.12 485.15 146.69 482.51 150.41 480.09 C 150.89 479.95 151.86 479.66 152.34 479.52 C 147.83 485.65 142.51 491.10 137.71 496.99 C 137.07 497.19 135.80 497.59 135.16 497.78 C 129.85 493.95 126.27 488.46 123.36 482.69 C 121.19 479.73 120.92 476.00 120.13 472.55 C 119.24 465.77 119.70 458.73 122.50 452.42 C 124.41 445.33 128.88 439.13 134.32 434.30 Z" />
<path fill="#020202" d=" M 193.25 433.48 C 196.75 433.62 198.49 437.18 200.60 439.47 C 204.45 443.80 205.31 449.71 207.54 454.88 C 208.47 459.43 209.46 464.19 208.37 468.81 C 207.28 474.71 206.59 481.20 202.82 486.07 C 199.27 486.06 197.07 482.57 194.29 480.81 C 195.33 478.67 196.38 476.52 197.03 474.23 L 195.50 473.83 C 195.61 473.47 195.83 472.74 195.94 472.38 C 193.06 471.24 190.15 469.97 187.94 467.75 C 191.17 468.20 194.29 469.15 197.39 470.16 C 197.63 469.48 198.12 468.12 198.36 467.44 C 197.31 462.94 197.50 458.18 195.77 453.85 C 194.65 454.06 193.54 454.29 192.43 454.52 C 193.63 453.55 194.82 452.57 196.00 451.59 C 194.08 449.35 192.07 447.18 190.42 444.74 C 191.01 440.90 192.51 437.29 193.25 433.48 Z" />
<path fill="#020202" d=" M 163.48 464.70 C 165.32 463.24 168.33 465.17 167.57 467.46 C 167.16 469.73 164.55 469.03 162.91 469.15 C 162.73 467.70 161.75 465.58 163.48 464.70 Z" />
<path fill="#020202" d=" M 180.90 478.13 C 182.79 479.62 184.65 481.16 186.48 482.73 C 190.99 485.23 194.75 488.82 198.87 491.88 C 195.90 494.71 192.92 497.67 189.14 499.40 C 187.55 500.05 186.55 501.50 185.57 502.84 C 179.79 506.52 173.04 508.01 166.35 509.00 L 164.20 509.00 C 155.95 507.94 147.16 507.27 139.99 502.61 C 139.93 499.70 143.60 498.11 145.09 495.77 C 148.81 497.00 152.62 497.96 156.38 499.10 C 157.98 495.32 158.61 491.22 160.23 487.44 C 160.46 491.46 160.30 495.48 160.26 499.50 C 164.56 499.80 168.85 499.36 173.08 498.60 C 172.49 495.22 171.73 491.86 171.65 488.42 C 174.00 490.81 175.29 493.91 176.56 496.95 C 180.10 494.79 183.72 492.78 187.21 490.55 C 186.57 488.83 185.94 487.10 185.38 485.36 C 184.26 484.28 183.15 483.21 182.06 482.12 C 181.70 480.78 181.30 479.45 180.90 478.13 Z" />
</svg>
